<svg width="16" height="16" viewBox="0 0 16 16" fill="none" xmlns="http://www.w3.org/2000/svg">
<path d="M9.76255 8.00023L15.1375 2.63773C15.3729 2.40235 15.5052 2.08311 15.5052 1.75023C15.5052 1.41735 15.3729 1.09811 15.1375 0.862732C14.9022 0.627352 14.5829 0.495117 14.25 0.495117C13.9172 0.495117 13.5979 0.627352 13.3625 0.862732L8.00005 6.23773L2.63755 0.862732C2.40217 0.627352 2.08292 0.495117 1.75005 0.495117C1.41717 0.495117 1.09793 0.627352 0.862546 0.862732C0.627166 1.09811 0.494931 1.41735 0.494931 1.75023C0.494931 2.08311 0.627166 2.40235 0.862546 2.63773L6.23755 8.00023L0.862546 13.3627C0.745385 13.4789 0.652393 13.6172 0.588932 13.7695C0.525471 13.9218 0.492798 14.0852 0.492798 14.2502C0.492798 14.4152 0.525471 14.5786 0.588932 14.731C0.652393 14.8833 0.745385 15.0215 0.862546 15.1377C0.978749 15.2549 1.117 15.3479 1.26932 15.4113C1.42165 15.4748 1.58503 15.5075 1.75005 15.5075C1.91506 15.5075 2.07844 15.4748 2.23077 15.4113C2.38309 15.3479 2.52134 15.2549 2.63755 15.1377L8.00005 9.76273L13.3625 15.1377C13.4788 15.2549 13.617 15.3479 13.7693 15.4113C13.9216 15.4748 14.085 15.5075 14.25 15.5075C14.4151 15.5075 14.5784 15.4748 14.7308 15.4113C14.8831 15.3479 15.0213 15.2549 15.1375 15.1377C15.2547 15.0215 15.3477 14.8833 15.4112 14.731C15.4746 14.5786 15.5073 14.4152 15.5073 14.2502C15.5073 14.0852 15.4746 13.9218 15.4112 13.7695C15.3477 13.6172 15.2547 13.4789 15.1375 13.3627L9.76255 8.00023Z" fill="white"/>
</svg>
