<svg width="154" height="39" viewBox="0 0 154 39" fill="none" xmlns="http://www.w3.org/2000/svg">
<path d="M9.074 14.492C10.1487 14.492 11.1193 14.726 11.986 15.194C12.8527 15.6447 13.5287 16.3293 14.014 17.248C14.5167 18.1667 14.768 19.2847 14.768 20.602V29H12.428V20.94C12.428 19.5187 12.0727 18.4353 11.362 17.69C10.6513 16.9273 9.68067 16.546 8.45 16.546C7.202 16.546 6.20533 16.936 5.46 17.716C4.732 18.496 4.368 19.6313 4.368 21.122V29H2.002V9.76H4.368V16.78C4.836 16.052 5.47733 15.4887 6.292 15.09C7.124 14.6913 8.05133 14.492 9.074 14.492ZM24.8469 29.234C23.5122 29.234 22.2989 28.9307 21.2069 28.324C20.1322 27.7173 19.2829 26.8593 18.6589 25.75C18.0522 24.6233 17.7489 23.3233 17.7489 21.85C17.7489 20.394 18.0609 19.1113 18.6849 18.002C19.3262 16.8753 20.1929 16.0173 21.2849 15.428C22.3769 14.8213 23.5989 14.518 24.9509 14.518C26.3029 14.518 27.5249 14.8213 28.6169 15.428C29.7089 16.0173 30.5669 16.8667 31.1909 17.976C31.8322 19.0853 32.1529 20.3767 32.1529 21.85C32.1529 23.3233 31.8235 24.6233 31.1649 25.75C30.5235 26.8593 29.6482 27.7173 28.5389 28.324C27.4295 28.9307 26.1989 29.234 24.8469 29.234ZM24.8469 27.154C25.6962 27.154 26.4935 26.9547 27.2389 26.556C27.9842 26.1573 28.5822 25.5593 29.0329 24.762C29.5009 23.9647 29.7349 22.994 29.7349 21.85C29.7349 20.706 29.5095 19.7353 29.0589 18.938C28.6082 18.1407 28.0189 17.5513 27.2909 17.17C26.5629 16.7713 25.7742 16.572 24.9249 16.572C24.0582 16.572 23.2609 16.7713 22.5329 17.17C21.8222 17.5513 21.2502 18.1407 20.8169 18.938C20.3835 19.7353 20.1669 20.706 20.1669 21.85C20.1669 23.0113 20.3749 23.9907 20.7909 24.788C21.2242 25.5853 21.7962 26.1833 22.5069 26.582C23.2175 26.9633 23.9975 27.154 24.8469 27.154ZM38.1497 16.702V25.1C38.1497 25.7933 38.2971 26.2873 38.5917 26.582C38.8864 26.8593 39.3977 26.998 40.1257 26.998H41.8677V29H39.7357C38.4184 29 37.4304 28.6967 36.7717 28.09C36.1131 27.4833 35.7837 26.4867 35.7837 25.1V16.702H33.9377V14.752H35.7837V11.164H38.1497V14.752H41.8677V16.702H38.1497ZM57.7344 21.33C57.7344 21.7807 57.7084 22.2573 57.6564 22.76H46.2684C46.3551 24.164 46.8318 25.2647 47.6984 26.062C48.5824 26.842 49.6484 27.232 50.8964 27.232C51.9191 27.232 52.7684 26.998 53.4444 26.53C54.1378 26.0447 54.6231 25.4033 54.9004 24.606H57.4484C57.0671 25.9753 56.3044 27.0933 55.1604 27.96C54.0164 28.8093 52.5951 29.234 50.8964 29.234C49.5444 29.234 48.3311 28.9307 47.2564 28.324C46.1991 27.7173 45.3671 26.8593 44.7604 25.75C44.1538 24.6233 43.8504 23.3233 43.8504 21.85C43.8504 20.3767 44.1451 19.0853 44.7344 17.976C45.3238 16.8667 46.1471 16.0173 47.2044 15.428C48.2791 14.8213 49.5098 14.518 50.8964 14.518C52.2484 14.518 53.4444 14.8127 54.4844 15.402C55.5244 15.9913 56.3218 16.806 56.8764 17.846C57.4484 18.8687 57.7344 20.03 57.7344 21.33ZM55.2904 20.836C55.2904 19.9347 55.0911 19.1633 54.6924 18.522C54.2938 17.8633 53.7478 17.3693 53.0544 17.04C52.3784 16.6933 51.6244 16.52 50.7924 16.52C49.5964 16.52 48.5738 16.9013 47.7244 17.664C46.8924 18.4267 46.4158 19.484 46.2944 20.836H55.2904ZM63.2235 9.76V29H60.8575V9.76H63.2235ZM66.3719 21.824C66.3719 20.368 66.6666 19.094 67.2559 18.002C67.8452 16.8927 68.6512 16.0347 69.6739 15.428C70.7139 14.8213 71.8752 14.518 73.1579 14.518C74.2672 14.518 75.2986 14.778 76.2519 15.298C77.2052 15.8007 77.9332 16.468 78.4359 17.3V9.76H80.8279V29H78.4359V26.322C77.9679 27.1713 77.2746 27.8733 76.3559 28.428C75.4372 28.9653 74.3626 29.234 73.1319 29.234C71.8666 29.234 70.7139 28.922 69.6739 28.298C68.6512 27.674 67.8452 26.7987 67.2559 25.672C66.6666 24.5453 66.3719 23.2627 66.3719 21.824ZM78.4359 21.85C78.4359 20.7753 78.2192 19.8393 77.7859 19.042C77.3526 18.2447 76.7632 17.638 76.0179 17.222C75.2899 16.7887 74.4839 16.572 73.5999 16.572C72.7159 16.572 71.9099 16.78 71.1819 17.196C70.4539 17.612 69.8732 18.2187 69.4399 19.016C69.0066 19.8133 68.7899 20.7493 68.7899 21.824C68.7899 22.916 69.0066 23.8693 69.4399 24.684C69.8732 25.4813 70.4539 26.0967 71.1819 26.53C71.9099 26.946 72.7159 27.154 73.5999 27.154C74.4839 27.154 75.2899 26.946 76.0179 26.53C76.7632 26.0967 77.3526 25.4813 77.7859 24.684C78.2192 23.8693 78.4359 22.9247 78.4359 21.85ZM86.0482 12.438C85.5976 12.438 85.2162 12.282 84.9042 11.97C84.5922 11.658 84.4362 11.2767 84.4362 10.826C84.4362 10.3753 84.5922 9.994 84.9042 9.682C85.2162 9.37 85.5976 9.214 86.0482 9.214C86.4816 9.214 86.8456 9.37 87.1402 9.682C87.4522 9.994 87.6082 10.3753 87.6082 10.826C87.6082 11.2767 87.4522 11.658 87.1402 11.97C86.8456 12.282 86.4816 12.438 86.0482 12.438ZM87.1922 14.752V29H84.8262V14.752H87.1922ZM108.359 14.492C109.468 14.492 110.456 14.726 111.323 15.194C112.189 15.6447 112.874 16.3293 113.377 17.248C113.879 18.1667 114.131 19.2847 114.131 20.602V29H111.791V20.94C111.791 19.5187 111.435 18.4353 110.725 17.69C110.031 16.9273 109.087 16.546 107.891 16.546C106.66 16.546 105.681 16.9447 104.953 17.742C104.225 18.522 103.861 19.6573 103.861 21.148V29H101.521V20.94C101.521 19.5187 101.165 18.4353 100.455 17.69C99.7613 16.9273 98.8167 16.546 97.6207 16.546C96.39 16.546 95.4107 16.9447 94.6827 17.742C93.9547 18.522 93.5907 19.6573 93.5907 21.148V29H91.2247V14.752H93.5907V16.806C94.0587 16.0607 94.6827 15.4887 95.4627 15.09C96.26 14.6913 97.1353 14.492 98.0887 14.492C99.2847 14.492 100.342 14.7607 101.261 15.298C102.179 15.8353 102.864 16.624 103.315 17.664C103.713 16.6587 104.372 15.8787 105.291 15.324C106.209 14.7693 107.232 14.492 108.359 14.492ZM131.012 21.33C131.012 21.7807 130.986 22.2573 130.934 22.76H119.546C119.632 24.164 120.109 25.2647 120.976 26.062C121.86 26.842 122.926 27.232 124.174 27.232C125.196 27.232 126.046 26.998 126.722 26.53C127.415 26.0447 127.9 25.4033 128.178 24.606H130.726C130.344 25.9753 129.582 27.0933 128.438 27.96C127.294 28.8093 125.872 29.234 124.174 29.234C122.822 29.234 121.608 28.9307 120.534 28.324C119.476 27.7173 118.644 26.8593 118.038 25.75C117.431 24.6233 117.128 23.3233 117.128 21.85C117.128 20.3767 117.422 19.0853 118.012 17.976C118.601 16.8667 119.424 16.0173 120.482 15.428C121.556 14.8213 122.787 14.518 124.174 14.518C125.526 14.518 126.722 14.8127 127.762 15.402C128.802 15.9913 129.599 16.806 130.154 17.846C130.726 18.8687 131.012 20.03 131.012 21.33ZM128.568 20.836C128.568 19.9347 128.368 19.1633 127.97 18.522C127.571 17.8633 127.025 17.3693 126.332 17.04C125.656 16.6933 124.902 16.52 124.07 16.52C122.874 16.52 121.851 16.9013 121.002 17.664C120.17 18.4267 119.693 19.484 119.572 20.836H128.568Z" fill="white"/>
<path d="M146.5 9C145.515 8.99994 144.54 9.18175 143.63 9.53504C142.72 9.88833 141.893 10.4062 141.197 11.059C140.5 11.7119 139.948 12.4869 139.571 13.3399C139.194 14.1929 139 15.1072 139 16.0304C139 19.1266 143.768 25.9259 145.701 28.5553C145.779 28.6899 145.895 28.8022 146.035 28.8805C146.176 28.9587 146.336 29 146.5 29C146.663 29 146.824 28.9587 146.965 28.8805C147.105 28.8022 147.221 28.6899 147.299 28.5553C149.23 25.9259 154 19.1266 154 16.0304C154 15.1072 153.806 14.1929 153.429 13.3399C153.052 12.4869 152.5 11.7119 151.803 11.059C151.107 10.4062 150.28 9.88833 149.37 9.53504C148.46 9.18175 147.485 8.99994 146.5 9ZM146.5 12.2809C147.291 12.2809 148.064 12.5008 148.722 12.9128C149.38 13.3248 149.893 13.9104 150.196 14.5955C150.498 15.2806 150.577 16.0346 150.423 16.7619C150.269 17.4892 149.888 18.1573 149.328 18.6817C148.769 19.2061 148.056 19.5632 147.28 19.7079C146.504 19.8526 145.7 19.7783 144.969 19.4945C144.238 19.2108 143.614 18.7302 143.174 18.1136C142.735 17.497 142.5 16.772 142.5 16.0304C142.5 15.036 142.921 14.0823 143.672 13.3791C144.422 12.676 145.439 12.2809 146.5 12.2809Z" fill="#FF5F00"/>
</svg>
