<svg width="17" height="11" viewBox="0 0 17 11" fill="none" xmlns="http://www.w3.org/2000/svg">
<path d="M15.5 4.625H1.5C0.975 4.625 0.625 4.975 0.625 5.5C0.625 6.025 0.975 6.375 1.5 6.375H15.5C16.025 6.375 16.375 6.025 16.375 5.5C16.375 4.975 16.025 4.625 15.5 4.625ZM1.5 2H15.5C16.025 2 16.375 1.65 16.375 1.125C16.375 0.6 16.025 0.25 15.5 0.25H1.5C0.975 0.25 0.625 0.6 0.625 1.125C0.625 1.65 0.975 2 1.5 2ZM15.5 9H1.5C0.975 9 0.625 9.35 0.625 9.875C0.625 10.4 0.975 10.75 1.5 10.75H15.5C16.025 10.75 16.375 10.4 16.375 9.875C16.375 9.35 16.025 9 15.5 9Z" fill="black"/>
</svg>
