<svg width="162" height="46" viewBox="0 0 162 46" fill="none" xmlns="http://www.w3.org/2000/svg">
<path d="M161.651 13.5261C162.07 13.1668 162.119 12.5356 161.759 12.1161L155.905 5.28066C155.546 4.86121 154.914 4.81242 154.495 5.17169C154.075 5.53095 154.027 6.16224 154.386 6.58169L159.59 12.6576L153.514 17.8618C153.095 18.221 153.046 18.8523 153.405 19.2718C153.764 19.6912 154.396 19.74 154.815 19.3807L161.651 13.5261ZM161.077 11.7696C91.9024 6.42318 43.7966 21.8428 22.9064 33.2601C17.7026 36.1042 14.1004 38.7466 12.3022 40.8154C11.8474 41.3386 11.4819 41.8543 11.2375 42.3546C10.9969 42.8471 10.8384 43.3972 10.9044 43.9559C10.9756 44.5578 11.2938 45.0502 11.7759 45.3885C12.2255 45.7042 12.7867 45.8674 13.3755 45.9435C14.5516 46.0954 16.1628 45.9386 18.1627 45.4967C20.1829 45.0503 22.6756 44.2952 25.6473 43.1909C31.5919 40.982 39.5103 37.3547 49.4935 31.9307L48.5387 30.1733C38.6093 35.5681 30.7799 39.1501 24.9507 41.3162C22.0355 42.3994 19.6348 43.1231 17.7311 43.5438C15.8072 43.969 14.4642 44.0675 13.6318 43.9599C13.2163 43.9063 13.0096 43.811 12.9249 43.7515C12.8885 43.726 12.8836 43.7136 12.8879 43.7204C12.893 43.7287 12.892 43.7333 12.8906 43.7212C12.8862 43.6837 12.8876 43.5331 13.0345 43.2325C13.1776 42.9397 13.427 42.57 13.8117 42.1274C15.3713 40.3332 18.7188 37.8281 23.8656 35.0151C44.3779 23.8043 92.0894 8.44359 160.923 13.7636L161.077 11.7696ZM49.4935 31.9307C59.4661 26.5124 66.9695 21.9801 72.3637 18.2087C77.7279 14.4582 81.1051 11.3942 82.7101 8.89194C83.5171 7.63382 83.9487 6.40636 83.8409 5.23941C83.7289 4.02805 83.0557 3.07751 82.0692 2.37051C81.1067 1.68072 79.8095 1.19077 78.2996 0.839004C76.7782 0.484529 74.9737 0.255418 72.946 0.127543C64.8611 -0.382317 52.8056 0.696574 39.8359 2.32077C26.8487 3.94717 12.8445 6.13447 0.857107 7.86515L1.14289 9.84463C13.1635 8.10916 27.1217 5.9286 40.0844 4.30527C53.0647 2.67975 64.9466 1.62705 72.8201 2.12358C74.7819 2.2473 76.4683 2.46591 77.8458 2.78684C79.2349 3.11047 80.2448 3.52361 80.9041 3.99615C81.5395 4.45149 81.803 4.92252 81.8493 5.42354C81.8998 5.96897 81.7113 6.7447 81.0267 7.81212C79.6483 9.96093 76.5557 12.8375 71.2177 16.5695C65.9098 20.2806 58.4787 24.7727 48.5387 30.1733L49.4935 31.9307Z" fill="white"/>
</svg>
